<svg width="158" height="160" viewBox="0 0 158 160" fill="none" xmlns="http://www.w3.org/2000/svg">
<path d="M2.71952 72.2376C2.74435 71.8544 2.81929 71.5226 2.94436 71.2421C3.0641 70.9612 3.21679 70.7493 3.40242 70.6064C3.5884 70.4581 3.78492 70.3532 3.99199 70.2918C4.19374 70.2301 4.40638 70.2064 4.62991 70.2209C4.85344 70.2354 5.06391 70.2865 5.26133 70.3741C5.45342 70.4613 5.63211 70.5905 5.7974 70.7615C5.96303 70.9273 6.08976 71.1573 6.17758 71.4516C6.26008 71.7455 6.28891 72.0841 6.26409 72.4673L6.16994 73.9202L8.19769 74.0516L8.15062 74.7781L2.57831 74.4171L2.71952 72.2376ZM5.57287 72.4947C5.60804 71.9518 5.52892 71.5645 5.33549 71.3329C5.14241 71.0959 4.89153 70.9674 4.58284 70.9474C4.27415 70.9274 4.00879 71.0224 3.78674 71.2325C3.56503 71.4373 3.4366 71.8111 3.40142 72.354L3.31194 73.7351L5.48338 73.8758L5.57287 72.4947Z" fill="white"/>
<path d="M8.67801 64.4909L8.86788 64.5194C9.03665 64.5447 9.19633 64.5229 9.34693 64.4538L9.37857 64.4586L9.26688 65.2022C9.13449 65.2578 8.98654 65.2734 8.82304 65.2488L8.69646 65.2298C8.21123 65.1569 7.87144 65.1571 7.67706 65.2304C7.575 65.2636 7.46528 65.3118 7.34792 65.3751C7.12294 65.5085 6.98035 65.7756 6.92015 66.1765L6.67419 67.8141L8.82606 68.1373L8.71793 68.8572L3.19587 68.0278L3.52619 65.8285C3.63392 65.1112 3.86239 64.5954 4.21161 64.2812C4.56083 63.9669 4.97542 63.8458 5.45537 63.9179C5.77709 63.9662 6.0541 64.0968 6.2864 64.3096C6.51342 64.5217 6.65999 64.8026 6.72612 65.1523L6.74194 65.1547C6.99891 64.5569 7.64427 64.3356 8.67801 64.4909ZM6.20889 66.28C6.27701 65.8264 6.24122 65.4543 6.1015 65.1636C5.96258 64.8677 5.73226 64.6956 5.41053 64.6473C5.08881 64.599 4.82613 64.6782 4.6225 64.8849C4.41967 65.0863 4.27666 65.4639 4.19349 66.0177L3.98436 67.4101L5.99382 67.7119L6.20889 66.28Z" fill="white"/>
<path d="M5.15243 61.4403C4.75338 60.8223 4.65305 60.1038 4.85145 59.2848C5.04985 58.4659 5.46786 57.8729 6.10549 57.5061C6.74312 57.1392 7.4759 57.0479 8.30383 57.232C9.12422 57.4472 9.73395 57.8638 10.133 58.4817C10.532 59.0997 10.6324 59.8182 10.434 60.6372C10.2356 61.4562 9.81757 62.0491 9.17994 62.416C8.54231 62.7828 7.80953 62.8742 6.9816 62.6901C6.1612 62.4749 5.55148 62.0583 5.15243 61.4403ZM7.153 61.9825C7.76982 62.132 8.32371 62.0768 8.81466 61.8171C9.30168 61.551 9.62053 61.1069 9.77121 60.4849C9.92315 59.8577 9.8435 59.3143 9.53228 58.8548C9.21587 58.394 8.74925 58.0889 8.13243 57.9395C7.5156 57.7901 6.96368 57.8484 6.47666 58.1146C5.98446 58.3795 5.66239 58.8255 5.51045 59.4527C5.35977 60.0747 5.44263 60.6161 5.75904 61.0769C6.07152 61.5312 6.53617 61.8331 7.153 61.9825Z" fill="white"/>
<path d="M6.8671 53.0385C7.01593 52.6047 7.22825 52.2405 7.50406 51.9461C7.77654 51.6449 8.07777 51.4325 8.40774 51.3089C9.07619 51.0533 9.7484 51.0414 10.4244 51.2733C10.9642 51.4585 11.4076 51.7685 11.7546 52.2033C12.1384 52.6789 12.3301 53.2212 12.3299 53.83C12.3287 54.1623 12.2683 54.5024 12.1489 54.8505L11.5103 56.712L6.22848 54.9L6.8671 53.0385ZM11.4772 54.7131C11.6918 54.0876 11.6798 53.5224 11.4414 53.0178C11.2029 52.5131 10.786 52.1586 10.1908 51.9544C9.59548 51.7502 9.04881 51.7741 8.55074 52.0261C8.05268 52.2781 7.69634 52.7169 7.48174 53.3424L7.10792 54.4321L11.1033 55.8028L11.4772 54.7131Z" fill="white"/>
<path d="M10.3013 44.811L10.6003 44.1472L13.7805 45.58C14.1111 45.729 14.3793 45.9258 14.5849 46.1705C14.7878 46.4082 14.92 46.6667 14.9814 46.9459C15.045 47.2202 15.0634 47.4975 15.0365 47.7779C15.0069 48.0512 14.9352 48.3143 14.8213 48.5672C14.7074 48.82 14.5567 49.0505 14.3694 49.2586C14.1794 49.4596 13.9595 49.6296 13.7097 49.7686C13.4621 49.9027 13.1809 49.975 12.8662 49.9853C12.5489 49.9885 12.2249 49.9157 11.8942 49.7667L8.71407 48.3339L9.01311 47.6702L12.2151 49.1128C12.6431 49.3056 13.0397 49.3147 13.405 49.14C13.7703 48.9653 14.0406 48.6834 14.2159 48.2944C14.3912 47.9054 14.4232 47.5162 14.312 47.1269C14.2008 46.7375 13.9312 46.4464 13.5033 46.2536L10.3013 44.811Z" fill="white"/>
<path d="M14.9654 38.7578C14.3801 39.0591 13.9255 39.498 13.6016 40.0745C13.2776 40.6511 13.2009 41.2014 13.3714 41.7254C13.5419 42.2494 13.9062 42.6682 14.4641 42.9817C15.0221 43.2952 15.5692 43.3884 16.1054 43.2615C16.6417 43.1346 17.0718 42.7828 17.3957 42.2063C17.7197 41.6297 17.8581 41.0131 17.811 40.3566L17.8306 40.3217L18.4583 40.6744C18.4784 41.3463 18.3199 41.9822 17.9829 42.5821C17.5832 43.2935 17.0285 43.7526 16.3189 43.9595C15.6072 44.1592 14.8701 44.0448 14.1075 43.6164C13.345 43.1879 12.8662 42.6192 12.6712 41.9101C12.4742 41.1938 12.5755 40.4799 12.9752 39.7685C13.3122 39.1687 13.7729 38.7026 14.3572 38.3702L14.9849 38.7229L14.9654 38.7578Z" fill="white"/>
<path d="M17.3774 33.1925L17.94 33.5743L16.8573 35.1696L20.9151 37.9235L20.5063 38.5259L16.4485 35.772L15.3659 37.3673L14.8032 36.9855L17.3774 33.1925Z" fill="white"/>
<path d="M23.1535 26.3811C23.4641 26.0436 23.8048 25.7954 24.1757 25.6366C24.5462 25.4702 24.9074 25.3967 25.2592 25.4161C25.9741 25.4506 26.5944 25.7098 27.1203 26.1938C27.5402 26.5802 27.8217 27.0423 27.9648 27.5799C28.1251 28.1696 28.0829 28.7432 27.838 29.3006C27.7034 29.6044 27.5115 29.8917 27.2623 30.1624L25.9296 31.6105L21.8208 27.8292L23.1535 26.3811ZM26.7024 29.7667C27.1502 29.2801 27.3663 28.7578 27.3507 28.1998C27.3351 27.6418 27.0958 27.1498 26.6327 26.7236C26.1696 26.2974 25.6594 26.0997 25.102 26.1304C24.5447 26.161 24.0421 26.4197 23.5943 26.9063L22.8141 27.754L25.9222 30.6144L26.7024 29.7667Z" fill="white"/>
<path d="M30.0839 20.6927L27.7586 22.8087L28.9485 24.1163L31.0608 22.1942L31.5185 22.6971L29.4061 24.6193L30.6014 25.9329L32.9268 23.8169L33.3844 24.3198L30.5206 26.9258L26.7625 22.7957L29.6263 20.1898L30.0839 20.6927Z" fill="white"/>
<path d="M32.8829 19.5738C33.0126 19.7431 33.1853 19.8326 33.4009 19.842C33.6207 19.8483 33.8479 19.7985 34.0826 19.6925C34.314 19.5824 34.572 19.472 34.8567 19.3613C35.1425 19.2431 35.414 19.1459 35.6714 19.0696C35.9287 18.9933 36.1911 18.9938 36.4586 19.071C36.7271 19.1407 36.9619 19.3068 37.163 19.5693C37.442 19.9333 37.5205 20.3469 37.3984 20.8101C37.2772 21.2658 36.95 21.698 36.4166 22.1068C35.8832 22.5156 35.2877 22.7906 34.6299 22.9318L34.1968 22.3667L34.2285 22.3424C34.8569 22.2505 35.4527 21.9888 36.0157 21.5573C36.7565 20.9896 36.9387 20.4602 36.5624 19.9692C36.3774 19.7279 36.0613 19.688 35.6139 19.8494C35.4183 19.9187 35.2074 20.003 34.9813 20.1024C34.7551 20.2018 34.5203 20.2944 34.2769 20.3802C34.0378 20.4627 33.8053 20.5232 33.5796 20.5618C33.3548 20.593 33.1332 20.5713 32.9149 20.4967C32.6975 20.4147 32.5077 20.2679 32.3454 20.0562C32.0632 19.688 31.9703 19.2686 32.0667 18.7983C32.1674 18.3247 32.4633 17.8997 32.9543 17.5234C33.4496 17.1438 33.9546 16.8777 34.4693 16.7252L34.8829 17.2649L34.8385 17.2989C34.3173 17.443 33.8726 17.6562 33.5043 17.9385C33.1402 18.2175 32.9027 18.5037 32.7916 18.7971C32.6772 19.0863 32.7077 19.3452 32.8829 19.5738Z" fill="white"/>
<path d="M37.4558 14.501L40.5261 19.1651L39.9181 19.5653L36.8477 14.9012L37.4558 14.501Z" fill="white"/>
<path d="M44.1078 13.5194L45.9479 12.4991L47.1737 14.71C46.7711 15.4028 46.248 15.9276 45.6043 16.2845C44.872 16.6906 44.1503 16.7858 43.4393 16.5702C42.7282 16.3546 42.1671 15.876 41.7559 15.1344C41.3447 14.3927 41.243 13.6594 41.4508 12.9343C41.6586 12.2093 42.0891 11.6657 42.7421 11.3037C43.3997 10.939 44.122 10.7734 44.9088 10.8067L45.2735 11.4643L45.2455 11.4799C44.4571 11.4108 43.7831 11.5315 43.2234 11.8418C42.6683 12.1495 42.309 12.5683 42.1453 13.0981C41.9817 13.6279 42.0602 14.182 42.3809 14.7604C42.699 15.3341 43.1279 15.7061 43.6675 15.8765C44.2046 16.0422 44.7669 15.9621 45.3547 15.6363C45.7931 15.3932 46.1443 15.0643 46.4084 14.6496L45.7062 13.3832L44.4259 14.0931L44.1078 13.5194Z" fill="white"/>
<path d="M50.771 7.6391L51.4377 7.34662L53.6811 12.4601L52.8606 12.8201L48.0528 9.90618L48.0382 9.91261L49.8863 14.125L49.2196 14.4175L46.9762 9.304L47.7967 8.94402L52.5939 11.8538L52.6159 11.8442L50.771 7.6391Z" fill="white"/>
<path d="M57.4126 6.08881L54.433 7.09225L54.9973 8.76778L57.7039 7.85626L57.9209 8.5007L55.2143 9.41222L55.7811 11.0953L58.7607 10.0919L58.9777 10.7363L55.3082 11.9721L53.526 6.68016L57.1955 5.44437L57.4126 6.08881Z" fill="white"/>
<path d="M65.0229 8.55356L65.0686 8.74003C65.1092 8.90579 65.1901 9.04521 65.3112 9.15829L65.3188 9.18937L64.5884 9.36847C64.4867 9.26711 64.4161 9.13615 64.3768 8.97557L64.3463 8.85125C64.2294 8.3747 64.1002 8.06044 63.9586 7.90846C63.8891 7.82665 63.8028 7.74347 63.6997 7.65893C63.4909 7.50147 63.1896 7.47101 62.796 7.56754L61.1876 7.96193L61.7058 10.0753L60.9988 10.2487L59.6689 4.82537L61.8289 4.29571C62.5334 4.12296 63.0973 4.13844 63.5206 4.34214C63.944 4.54584 64.2135 4.88338 64.3291 5.35475C64.4066 5.67072 64.3909 5.97657 64.2822 6.2723C64.1723 6.56285 63.9681 6.80511 63.6697 6.99909L63.6735 7.01463C64.3241 7.02533 64.7739 7.5383 65.0229 8.55356ZM62.4301 6.94887C62.8756 6.83964 63.2062 6.66521 63.422 6.42558C63.643 6.18469 63.7147 5.90626 63.6373 5.59028C63.5598 5.27431 63.3868 5.06139 63.1182 4.95152C62.8548 4.84038 62.4512 4.8515 61.9073 4.98487L60.5398 5.32019L61.0237 7.29373L62.4301 6.94887Z" fill="white"/>
<path d="M72.6605 6.33072L70.5921 6.54969L70.5238 5.90529L72.5923 5.68632L72.6605 6.33072Z" fill="white"/>
<path d="M82.1999 2.52029C82.5837 2.53163 82.918 2.59486 83.2027 2.70998C83.4876 2.81978 83.7047 2.96492 83.8541 3.14541C84.0089 3.32606 84.1206 3.51877 84.1892 3.72355C84.258 3.92301 84.2891 4.13468 84.2825 4.35859C84.2759 4.58249 84.2323 4.79463 84.1517 4.995C84.0712 5.19004 83.9484 5.37316 83.7833 5.54436C83.6235 5.71572 83.3981 5.85046 83.107 5.94857C82.8162 6.04136 82.4788 6.08208 82.095 6.07074L80.6396 6.02775L80.5796 8.05886L79.8519 8.03737L80.0168 2.4558L82.1999 2.52029ZM82.0433 5.38092C82.5871 5.39698 82.9713 5.30428 83.1961 5.10283C83.4261 4.90154 83.5457 4.64629 83.5548 4.33709C83.564 4.02789 83.4596 3.76603 83.2419 3.55151C83.0294 3.33714 82.6514 3.22193 82.1076 3.20586L80.7242 3.165L80.6599 5.34005L82.0433 5.38092Z" fill="white"/>
<path d="M90.1536 8.20309L90.1318 8.39384C90.1124 8.5634 90.1399 8.72222 90.2142 8.87029L90.2106 8.90209L89.4634 8.81661C89.4032 8.68626 89.3825 8.53895 89.4013 8.37468L89.4158 8.24751C89.4716 7.76003 89.4594 7.42044 89.3794 7.22877C89.3426 7.12794 89.2905 7.01998 89.2232 6.90492C89.0819 6.68477 88.81 6.55166 88.4073 6.50559L86.762 6.31737L86.5147 8.47927L85.7914 8.39653L86.4261 2.84871L88.6356 3.10149C89.3563 3.18393 89.8798 3.39413 90.2061 3.73208C90.5325 4.07003 90.6681 4.4801 90.613 4.96229C90.576 5.28552 90.4552 5.56695 90.2506 5.80658C90.0467 6.04092 89.7711 6.19728 89.424 6.27566L89.4222 6.29156C90.0286 6.52735 90.2724 7.16453 90.1536 8.20309ZM88.2788 5.79841C88.7345 5.85054 89.1051 5.80168 89.3907 5.65184C89.6815 5.50259 89.8454 5.26636 89.8824 4.94313C89.9194 4.61991 89.831 4.36018 89.6172 4.16395C89.4088 3.96832 89.0264 3.83868 88.47 3.77503L87.0711 3.615L86.8402 5.63383L88.2788 5.79841Z" fill="white"/>
<path d="M93.0761 4.57297C93.6797 4.15244 94.3942 4.02691 95.2196 4.19639C96.0451 4.36586 96.6523 4.76277 97.0414 5.3871C97.4304 6.01144 97.5475 6.74055 97.3926 7.57444C97.2064 8.4019 96.8115 9.02589 96.2079 9.44643C95.6044 9.86696 94.8899 9.99249 94.0644 9.82302C93.239 9.65354 92.6317 9.25664 92.2427 8.6323C91.8536 8.00796 91.7365 7.27885 91.8914 6.44496C92.0776 5.6175 92.4725 4.99351 93.0761 4.57297ZM92.6045 6.59137C92.4769 7.21307 92.5515 7.76468 92.8283 8.24619C93.1114 8.72355 93.5664 9.02659 94.1933 9.1553C94.8255 9.28509 95.3657 9.18639 95.814 8.8592C96.2634 8.52678 96.5519 8.04973 96.6795 7.42803C96.8072 6.80633 96.7294 6.2568 96.4463 5.77944C96.1643 5.29686 95.7072 4.99067 95.075 4.86088C94.4481 4.73217 93.91 4.83402 93.4606 5.16643C93.0175 5.49469 92.7322 5.96968 92.6045 6.59137Z" fill="white"/>
<path d="M101.533 5.9896C101.972 6.12309 102.344 6.32248 102.648 6.58775C102.958 6.84948 103.181 7.14306 103.316 7.46847C103.595 8.12752 103.631 8.7989 103.423 9.48263C103.256 10.0286 102.962 10.4826 102.54 10.8447C102.078 11.245 101.543 11.4557 100.934 11.4768C100.602 11.4873 100.26 11.439 99.9082 11.3319L98.0254 10.7591L99.6506 5.41684L101.533 5.9896ZM100.022 10.6557C100.655 10.8482 101.219 10.8164 101.715 10.5603C102.211 10.3043 102.551 9.87518 102.734 9.27309C102.917 8.671 102.874 8.1255 102.604 7.63661C102.335 7.14771 101.884 6.80703 101.251 6.61455L100.149 6.27928L98.9198 10.3204L100.022 10.6557Z" fill="white"/>
<path d="M109.877 9.13295L110.551 9.40846L109.231 12.637C109.093 12.9727 108.906 13.2476 108.669 13.4617C108.438 13.6729 108.185 13.8141 107.908 13.8853C107.636 13.9585 107.359 13.9866 107.078 13.9696C106.804 13.9496 106.538 13.8872 106.282 13.7822C106.025 13.6773 105.789 13.5349 105.575 13.3549C105.367 13.1721 105.19 12.9583 105.042 12.7136C104.899 12.4708 104.817 12.1924 104.796 11.8783C104.781 11.5612 104.843 11.2349 104.98 10.8992L106.3 7.6706L106.974 7.94612L105.645 11.1969C105.467 11.6313 105.472 12.028 105.66 12.387C105.847 12.7459 106.138 13.0062 106.533 13.1676C106.928 13.3291 107.318 13.3474 107.703 13.2226C108.089 13.0978 108.37 12.8182 108.548 12.3837L109.877 9.13295Z" fill="white"/>
<path d="M116.091 13.5817C115.77 13.0074 115.315 12.5685 114.727 12.265C114.14 11.9616 113.587 11.9042 113.069 12.0931C112.552 12.2819 112.146 12.6606 111.852 13.2293C111.559 13.7979 111.485 14.348 111.63 14.8794C111.776 15.4109 112.143 15.8283 112.73 16.1318C113.318 16.4353 113.939 16.5519 114.594 16.4817L114.629 16.5001L114.299 17.1398C113.628 17.1835 112.987 17.0475 112.375 16.7318C111.65 16.3574 111.172 15.8192 110.94 15.1173C110.716 14.4131 110.804 13.6724 111.206 12.8952C111.607 12.1181 112.158 11.6196 112.86 11.3998C113.569 11.1777 114.286 11.2538 115.011 11.6283C115.623 11.944 116.105 12.388 116.457 12.9603L116.127 13.6L116.091 13.5817Z" fill="white"/>
<path d="M121.302 16.3259L118.64 14.653L117.699 16.1499L120.117 17.6696L119.755 18.2454L117.337 16.7256L116.392 18.2293L119.054 19.9023L118.692 20.478L115.414 18.4177L118.385 13.6899L121.663 15.7502L121.302 16.3259Z" fill="white"/>
<path d="M124.209 23.7812L124.093 23.9345C123.99 24.0709 123.934 24.2217 123.923 24.387L123.903 24.4126L123.303 23.9602C123.317 23.8173 123.374 23.6798 123.473 23.5477L123.55 23.4455C123.845 23.0535 124.007 22.7546 124.035 22.5488C124.054 22.4432 124.064 22.3238 124.065 22.1905C124.054 21.9291 123.887 21.6765 123.564 21.4327L122.241 20.4365L120.932 22.1747L120.35 21.7368L123.709 17.2762L125.486 18.6141C126.065 19.0504 126.41 19.4969 126.52 19.9537C126.63 20.4104 126.539 20.8327 126.247 21.2204C126.052 21.4802 125.805 21.6616 125.507 21.7645C125.212 21.8631 124.896 21.8582 124.557 21.7498L124.547 21.7626C124.95 22.2733 124.837 22.9461 124.209 23.7812ZM123.811 20.758C124.178 21.0339 124.522 21.1796 124.844 21.1952C125.171 21.214 125.432 21.0934 125.627 20.8335C125.823 20.5737 125.878 20.305 125.794 20.0275C125.713 19.7532 125.449 19.4476 125.002 19.1107L123.877 18.2637L122.655 19.8869L123.811 20.758Z" fill="white"/>
<path d="M133.389 25.7622C133.711 26.0891 133.942 26.4416 134.083 26.8198C134.231 27.1981 134.286 27.5624 134.249 27.9129C134.18 28.6251 133.89 29.232 133.381 29.7334C132.975 30.1338 132.499 30.3922 131.955 30.5087C131.358 30.6399 130.788 30.5695 130.243 30.2975C129.946 30.1481 129.669 29.9423 129.41 29.6801L128.03 28.2778L132.008 24.3599L133.389 25.7622ZM129.833 29.1403C130.297 29.6115 130.808 29.8531 131.366 29.8649C131.924 29.8768 132.428 29.6619 132.876 29.2204C133.324 28.7788 133.547 28.2789 133.544 27.7208C133.541 27.1626 133.307 26.6479 132.843 26.1766L132.035 25.3558L129.025 28.3194L129.833 29.1403Z" fill="white"/>
<path d="M138.73 32.9646L136.731 30.538L135.366 31.6621L137.182 33.8665L136.657 34.2988L134.841 32.0945L133.471 33.2237L135.47 35.6504L134.945 36.0827L132.483 33.0942L136.793 29.5437L139.255 32.5323L138.73 32.9646Z" fill="white"/>
<path d="M139.71 35.8158C139.534 35.9371 139.437 36.1051 139.417 36.32C139.4 36.5392 139.438 36.7686 139.532 37.0082C139.631 37.2447 139.729 37.5079 139.825 37.7978C139.929 38.0889 140.013 38.3649 140.076 38.6257C140.14 38.8865 140.127 39.1486 140.036 39.412C139.953 39.6767 139.776 39.903 139.504 40.091C139.127 40.3518 138.71 40.4098 138.253 40.265C137.804 40.1216 137.388 39.7735 137.006 39.2207C136.624 38.6678 136.379 38.0595 136.27 37.3956L136.856 36.9908L136.879 37.0237C136.939 37.6558 137.172 38.2637 137.575 38.8473C138.105 39.6151 138.625 39.8231 139.134 39.4714C139.384 39.2986 139.44 38.9848 139.3 38.5299C139.241 38.3312 139.167 38.1165 139.079 37.8857C138.991 37.6549 138.91 37.4158 138.836 37.1685C138.765 36.9256 138.716 36.6904 138.689 36.4631C138.669 36.2371 138.701 36.0168 138.787 35.8024C138.879 35.5893 139.035 35.4069 139.255 35.2553C139.636 34.9915 140.06 34.9193 140.525 35.0388C140.993 35.1627 141.403 35.4791 141.754 35.988C142.109 36.5014 142.35 37.0188 142.477 37.5404L141.918 37.927L141.886 37.8809C141.768 37.3533 141.577 36.8986 141.313 36.5169C141.052 36.1396 140.778 35.8882 140.49 35.7628C140.207 35.6344 139.947 35.6521 139.71 35.8158Z" fill="white"/>
<path d="M144.552 40.6312L139.743 43.4684L139.373 42.8414L144.183 40.0042L144.552 40.6312Z" fill="white"/>
<path d="M145.206 47.3232L146.134 49.2112L143.866 50.3268C143.193 49.8907 142.695 49.3424 142.37 48.6819C142.001 47.9305 141.941 47.205 142.191 46.5054C142.442 45.8059 142.947 45.2689 143.708 44.8947C144.469 44.5205 145.207 44.455 145.921 44.6982C146.635 44.9415 147.156 45.3981 147.486 46.0681C147.818 46.7429 147.948 47.4725 147.876 48.2567L147.201 48.5886L147.187 48.5599C147.294 47.7759 147.207 47.0967 146.925 46.5224C146.645 45.9529 146.244 45.5734 145.723 45.3839C145.202 45.1944 144.644 45.2456 144.051 45.5374C143.462 45.8269 143.07 46.237 142.873 46.7675C142.681 47.2958 142.733 47.8614 143.03 48.4645C143.251 48.9143 143.562 49.2813 143.964 49.5654L145.263 48.9264L144.617 47.6127L145.206 47.3232Z" fill="white"/>
<path d="M150.751 54.2684L151.01 54.9486L145.793 56.9378L145.474 56.1006L148.62 51.442L148.615 51.427L144.316 53.0657L144.057 52.3854L149.275 50.3962L149.594 51.2335L146.452 55.8818L146.46 55.9042L150.751 54.2684Z" fill="white"/>
<path d="M151.973 60.9762L151.118 57.9509L149.416 58.4321L150.194 61.1803L149.539 61.3654L148.762 58.6172L147.053 59.1005L147.909 62.1258L147.255 62.3109L146.201 58.5851L151.574 57.0653L152.628 60.7912L151.973 60.9762Z" fill="white"/>
<path d="M149.136 68.4585L148.948 68.495C148.78 68.5275 148.637 68.6014 148.518 68.7168L148.487 68.7229L148.344 67.9846C148.45 67.8879 148.584 67.8239 148.747 67.7925L148.872 67.7681C149.354 67.6749 149.674 67.5613 149.833 67.4273C149.918 67.3619 150.005 67.2798 150.095 67.181C150.262 66.9802 150.308 66.6808 150.231 66.2828L149.916 64.657L147.779 65.0707L147.641 64.356L153.123 63.2944L153.546 65.4779C153.684 66.19 153.641 66.7525 153.416 67.1653C153.192 67.5781 152.842 67.8307 152.365 67.9229C152.046 67.9848 151.741 67.9541 151.451 67.831C151.166 67.7069 150.934 67.4911 150.755 67.1835L150.74 67.1865C150.697 67.8358 150.162 68.2598 149.136 68.4585ZM150.866 65.9478C150.954 66.3981 151.112 66.737 151.34 66.9643C151.57 67.1969 151.845 67.2822 152.164 67.2204C152.483 67.1585 152.705 66.9962 152.828 66.7334C152.952 66.4758 152.96 66.0721 152.854 65.5223L152.586 64.14L150.591 64.5262L150.866 65.9478Z" fill="white"/>
<path d="M150.982 76.1949L150.865 74.1182L151.512 74.0817L151.629 76.1584L150.982 76.1949Z" fill="white"/>
<path d="M154.407 87.6817C154.383 88.0649 154.308 88.3967 154.183 88.6772C154.063 88.9581 153.91 89.17 153.725 89.3129C153.539 89.4612 153.342 89.5661 153.135 89.6275C152.933 89.6892 152.721 89.7129 152.497 89.6984C152.274 89.6839 152.063 89.6329 151.866 89.5452C151.674 89.458 151.495 89.3288 151.33 89.1578C151.164 88.992 151.037 88.762 150.949 88.4677C150.867 88.1738 150.838 87.8352 150.863 87.452L150.957 85.9991L148.929 85.8677L148.976 85.1412L154.549 85.5023L154.407 87.6817ZM151.554 87.4247C151.519 87.9675 151.598 88.3548 151.791 88.5864C151.985 88.8234 152.235 88.9519 152.544 88.9719C152.853 88.9919 153.118 88.8969 153.34 88.6868C153.562 88.482 153.69 88.1082 153.726 87.5654L153.815 86.1843L151.644 86.0436L151.554 87.4247Z" fill="white"/>
<path d="M148.447 95.4285L148.257 95.4C148.088 95.3747 147.929 95.3965 147.778 95.4656L147.746 95.4608L147.858 94.7172C147.991 94.6615 148.138 94.646 148.302 94.6706L148.429 94.6896C148.914 94.7625 149.254 94.7623 149.448 94.689C149.55 94.6558 149.66 94.6075 149.777 94.5443C150.002 94.4109 150.145 94.1437 150.205 93.7429L150.451 92.1053L148.299 91.7821L148.407 91.0622L153.929 91.8915L153.599 94.0909C153.491 94.8081 153.263 95.3239 152.913 95.6382C152.564 95.9525 152.15 96.0736 151.67 96.0015C151.348 95.9532 151.071 95.8226 150.839 95.6097C150.612 95.3977 150.465 95.1168 150.399 94.7671L150.383 94.7647C150.126 95.3625 149.481 95.5838 148.447 95.4285ZM150.916 93.6394C150.848 94.093 150.884 94.4651 151.023 94.7557C151.162 95.0516 151.393 95.2238 151.714 95.2721C152.036 95.3204 152.299 95.2412 152.502 95.0345C152.705 94.8331 152.848 94.4554 152.932 93.9016L153.141 92.5093L151.131 92.2075L150.916 93.6394Z" fill="white"/>
<path d="M151.973 98.4791C152.372 99.0971 152.472 99.8156 152.274 100.635C152.075 101.454 151.657 102.046 151.02 102.413C150.382 102.78 149.649 102.872 148.821 102.687C148.001 102.472 147.391 102.056 146.992 101.438C146.593 100.82 146.493 100.101 146.691 99.2822C146.889 98.4632 147.307 97.8703 147.945 97.5034C148.583 97.1366 149.315 97.0452 150.143 97.2293C150.964 97.4445 151.574 97.8611 151.973 98.4791ZM149.972 97.9368C149.355 97.7874 148.801 97.8425 148.31 98.1023C147.823 98.3684 147.504 98.8125 147.354 99.4345C147.202 100.062 147.281 100.605 147.593 101.065C147.909 101.525 148.376 101.83 148.993 101.98C149.609 102.129 150.161 102.071 150.648 101.805C151.141 101.54 151.463 101.094 151.615 100.467C151.765 99.8447 151.682 99.3033 151.366 98.8425C151.053 98.3881 150.589 98.0863 149.972 97.9368Z" fill="white"/>
<path d="M150.262 106.881C150.113 107.315 149.901 107.679 149.625 107.973C149.352 108.274 149.051 108.487 148.721 108.611C148.053 108.866 147.381 108.878 146.705 108.646C146.165 108.461 145.721 108.151 145.374 107.716C144.991 107.24 144.799 106.698 144.799 106.089C144.8 105.757 144.861 105.417 144.98 105.069L145.619 103.207L150.9 105.019L150.262 106.881ZM145.652 105.206C145.437 105.832 145.449 106.397 145.688 106.902C145.926 107.406 146.343 107.761 146.938 107.965C147.533 108.169 148.08 108.145 148.578 107.893C149.076 107.641 149.433 107.202 149.647 106.577L150.021 105.487L146.026 104.117L145.652 105.206Z" fill="white"/>
<path d="M146.826 115.108L146.527 115.772L143.346 114.339C143.016 114.19 142.748 113.994 142.542 113.749C142.339 113.511 142.207 113.253 142.146 112.974C142.082 112.699 142.064 112.422 142.09 112.141C142.12 111.868 142.192 111.605 142.306 111.352C142.42 111.099 142.57 110.869 142.758 110.661C142.948 110.46 143.167 110.29 143.417 110.151C143.665 110.017 143.946 109.944 144.261 109.934C144.578 109.931 144.902 110.004 145.233 110.153L148.413 111.585L148.114 112.249L144.912 110.807C144.484 110.614 144.087 110.605 143.722 110.779C143.357 110.954 143.086 111.236 142.911 111.625C142.736 112.014 142.704 112.403 142.815 112.793C142.926 113.182 143.196 113.473 143.624 113.666L146.826 115.108Z" fill="white"/>
<path d="M142.162 121.162C142.747 120.86 143.201 120.421 143.525 119.845C143.849 119.268 143.926 118.718 143.756 118.194C143.585 117.67 143.221 117.251 142.663 116.938C142.105 116.624 141.558 116.531 141.022 116.658C140.485 116.785 140.055 117.137 139.731 117.713C139.407 118.29 139.269 118.906 139.316 119.563L139.296 119.598L138.669 119.245C138.649 118.573 138.807 117.937 139.144 117.337C139.544 116.626 140.098 116.167 140.808 115.96C141.52 115.76 142.257 115.875 143.019 116.303C143.782 116.731 144.261 117.3 144.456 118.009C144.653 118.726 144.551 119.439 144.152 120.151C143.815 120.751 143.354 121.217 142.77 121.549L142.142 121.196L142.162 121.162Z" fill="white"/>
<path d="M139.748 126.727L139.185 126.345L140.268 124.75L136.21 121.996L136.619 121.393L140.676 124.147L141.759 122.552L142.322 122.934L139.748 126.727Z" fill="white"/>
<path d="M133.973 133.538C133.663 133.876 133.322 134.124 132.951 134.283C132.581 134.449 132.22 134.523 131.868 134.503C131.153 134.469 130.533 134.21 130.007 133.726C129.587 133.339 129.305 132.877 129.162 132.34C129.002 131.75 129.044 131.176 129.289 130.619C129.424 130.315 129.615 130.028 129.865 129.757L131.197 128.309L135.306 132.09L133.973 133.538ZM130.425 130.153C129.977 130.639 129.761 131.162 129.776 131.72C129.792 132.278 130.031 132.77 130.494 133.196C130.957 133.622 131.468 133.82 132.025 133.789C132.582 133.758 133.085 133.5 133.533 133.013L134.313 132.165L131.205 129.305L130.425 130.153Z" fill="white"/>
<path d="M127.041 139.227L129.366 137.111L128.177 135.803L126.064 137.725L125.607 137.222L127.719 135.3L126.524 133.987L124.198 136.102L123.741 135.6L126.604 132.994L130.363 137.124L127.499 139.73L127.041 139.227Z" fill="white"/>
<path d="M124.242 140.346C124.112 140.176 123.94 140.087 123.724 140.077C123.504 140.071 123.277 140.121 123.042 140.227C122.811 140.337 122.553 140.447 122.268 140.558C121.983 140.676 121.711 140.773 121.454 140.85C121.196 140.926 120.934 140.926 120.666 140.848C120.398 140.779 120.163 140.613 119.962 140.35C119.683 139.986 119.605 139.572 119.727 139.109C119.848 138.654 120.175 138.221 120.708 137.813C121.242 137.404 121.837 137.129 122.495 136.988L122.928 137.553L122.896 137.577C122.268 137.669 121.672 137.931 121.109 138.362C120.369 138.93 120.186 139.459 120.563 139.95C120.748 140.191 121.064 140.231 121.511 140.07C121.707 140.001 121.918 139.916 122.144 139.817C122.37 139.718 122.605 139.625 122.848 139.539C123.087 139.457 123.32 139.396 123.545 139.358C123.77 139.326 123.992 139.348 124.21 139.423C124.428 139.505 124.617 139.651 124.78 139.863C125.062 140.231 125.155 140.651 125.058 141.121C124.958 141.595 124.662 142.02 124.171 142.396C123.675 142.776 123.17 143.042 122.656 143.194L122.242 142.654L122.287 142.62C122.808 142.476 123.252 142.263 123.621 141.981C123.985 141.702 124.222 141.416 124.333 141.122C124.448 140.833 124.417 140.574 124.242 140.346Z" fill="white"/>
<path d="M119.671 145.418L116.601 140.754L117.209 140.354L120.279 145.018L119.671 145.418Z" fill="white"/>
<path d="M113.019 146.4L111.179 147.42L109.953 145.209C110.356 144.517 110.879 143.992 111.523 143.635C112.255 143.229 112.977 143.134 113.688 143.349C114.399 143.565 114.96 144.043 115.371 144.785C115.782 145.527 115.884 146.26 115.676 146.985C115.468 147.71 115.038 148.254 114.385 148.616C113.727 148.98 113.005 149.146 112.218 149.113L111.853 148.455L111.881 148.439C112.67 148.509 113.344 148.388 113.904 148.078C114.459 147.77 114.818 147.351 114.982 146.821C115.145 146.291 115.067 145.737 114.746 145.159C114.428 144.585 113.999 144.213 113.459 144.043C112.922 143.877 112.36 143.957 111.772 144.283C111.334 144.526 110.983 144.855 110.719 145.27L111.421 146.536L112.701 145.826L113.019 146.4Z" fill="white"/>
<path d="M106.356 152.28L105.689 152.573L103.446 147.459L104.266 147.099L109.074 150.013L109.089 150.007L107.241 145.794L107.907 145.502L110.151 150.615L109.33 150.975L104.533 148.066L104.511 148.075L106.356 152.28Z" fill="white"/>
<path d="M99.7163 153.831L102.696 152.827L102.132 151.152L99.425 152.063L99.208 151.419L101.915 150.507L101.348 148.824L98.3682 149.827L98.1512 149.183L101.821 147.947L103.603 153.239L99.9334 154.475L99.7163 153.831Z" fill="white"/>
<path d="M92.1021 151.366L92.0564 151.179C92.0158 151.014 91.9349 150.874 91.8138 150.761L91.8062 150.73L92.5366 150.551C92.6383 150.652 92.7089 150.783 92.7482 150.944L92.7787 151.068C92.8956 151.545 93.0248 151.859 93.1664 152.011C93.2359 152.093 93.3222 152.176 93.4253 152.26C93.6341 152.418 93.9354 152.448 94.329 152.352L95.9374 151.957L95.4192 149.844L96.1262 149.671L97.4561 155.094L95.2961 155.624C94.5916 155.796 94.0277 155.781 93.6044 155.577C93.181 155.374 92.9115 155.036 92.7959 154.565C92.7184 154.249 92.7341 153.943 92.8428 153.647C92.9527 153.357 93.1569 153.114 93.4553 152.92L93.4515 152.905C92.8009 152.894 92.3511 152.381 92.1021 151.366ZM94.6949 152.97C94.2494 153.08 93.9188 153.254 93.703 153.494C93.482 153.735 93.4103 154.013 93.4877 154.329C93.5652 154.645 93.7382 154.858 94.0068 154.968C94.2702 155.079 94.6738 155.068 95.2177 154.935L96.5852 154.599L96.1013 152.626L94.6949 152.97Z" fill="white"/>
<path d="M84.4665 153.589L86.5349 153.37L86.6031 154.014L84.5347 154.233L84.4665 153.589Z" fill="white"/>
<path d="M74.9271 157.399C74.5432 157.388 74.209 157.325 73.9242 157.209C73.6394 157.1 73.4222 156.954 73.2728 156.774C73.1181 156.593 73.0064 156.401 72.9377 156.196C72.8689 155.996 72.8378 155.785 72.8445 155.561C72.8511 155.337 72.8947 155.125 72.9753 154.924C73.0558 154.729 73.1786 154.546 73.3437 154.375C73.5035 154.204 73.7289 154.069 74.0199 153.971C74.3108 153.878 74.6481 153.837 75.032 153.849L76.4873 153.892L76.5473 151.861L77.275 151.882L77.1101 157.464L74.9271 157.399ZM75.0836 154.538C74.5399 154.522 74.1556 154.615 73.9309 154.817C73.7009 155.018 73.5813 155.273 73.5721 155.582C73.563 155.892 73.6673 156.153 73.8851 156.368C74.0975 156.582 74.4756 156.697 75.0194 156.714L76.4028 156.754L76.467 154.579L75.0836 154.538Z" fill="white"/>
<path d="M66.9753 151.716L66.9971 151.526C67.0165 151.356 66.989 151.197 66.9147 151.049L66.9184 151.017L67.6655 151.103C67.7257 151.233 67.7464 151.38 67.7277 151.545L67.7131 151.672C67.6573 152.159 67.6695 152.499 67.7495 152.691C67.7863 152.791 67.8384 152.899 67.9058 153.014C68.047 153.235 68.3189 153.368 68.7217 153.414L70.3669 153.602L70.6142 151.44L71.3375 151.523L70.7029 157.071L68.4933 156.818C67.7726 156.735 67.2491 156.525 66.9228 156.187C66.5964 155.849 66.4608 155.439 66.5159 154.957C66.5529 154.634 66.6737 154.352 66.8783 154.113C67.0822 153.878 67.3578 153.722 67.7049 153.644L67.7067 153.628C67.1003 153.392 66.8565 152.755 66.9753 151.716ZM68.8501 154.121C68.3944 154.069 68.0238 154.118 67.7382 154.268C67.4474 154.417 67.2835 154.653 67.2465 154.976C67.2095 155.299 67.2979 155.559 67.5117 155.755C67.7201 155.951 68.1025 156.081 68.6589 156.144L70.0578 156.304L70.2887 154.286L68.8501 154.121Z" fill="white"/>
<path d="M64.0489 155.346C63.4453 155.767 62.7308 155.892 61.9054 155.723C61.0799 155.554 60.4727 155.157 60.0836 154.532C59.6946 153.908 59.5775 153.179 59.7324 152.345C59.9186 151.517 60.3135 150.893 60.9171 150.473C61.5206 150.052 62.2351 149.927 63.0606 150.096C63.886 150.266 64.4933 150.663 64.8823 151.287C65.2714 151.911 65.3885 152.641 65.2336 153.474C65.0474 154.302 64.6525 154.926 64.0489 155.346ZM64.5205 153.328C64.6481 152.706 64.5735 152.155 64.2967 151.673C64.0136 151.196 63.5586 150.893 62.9317 150.764C62.2995 150.634 61.7593 150.733 61.311 151.06C60.8616 151.393 60.5731 151.87 60.4455 152.491C60.3178 153.113 60.3956 153.663 60.6787 154.14C60.9607 154.623 61.4178 154.929 62.05 155.058C62.6769 155.187 63.215 155.085 63.6644 154.753C64.1075 154.425 64.3928 153.95 64.5205 153.328Z" fill="white"/>
<path d="M55.5936 153.93C55.1547 153.796 54.7834 153.597 54.4794 153.332C54.1688 153.07 53.9459 152.776 53.8108 152.451C53.5319 151.792 53.4964 151.12 53.7044 150.437C53.8705 149.891 54.1647 149.437 54.587 149.075C55.0488 148.674 55.584 148.464 56.1925 148.443C56.5246 148.432 56.8667 148.48 57.2187 148.587L59.1015 149.16L57.4764 154.503L55.5936 153.93ZM57.105 149.264C56.4723 149.071 55.9079 149.103 55.412 149.359C54.916 149.615 54.5764 150.044 54.3932 150.646C54.2101 151.248 54.2532 151.794 54.5225 152.283C54.7919 152.772 55.243 153.112 55.8757 153.305L56.9778 153.64L58.2071 149.599L57.105 149.264Z" fill="white"/>
<path d="M47.2502 150.786L46.5764 150.511L47.8964 147.282C48.0337 146.947 48.221 146.672 48.4583 146.458C48.6887 146.246 48.9424 146.105 49.2192 146.034C49.4911 145.961 49.7677 145.933 50.0488 145.95C50.323 145.97 50.5885 146.032 50.8452 146.137C51.1019 146.242 51.3375 146.385 51.552 146.564C51.7596 146.747 51.9373 146.961 52.0849 147.206C52.2277 147.449 52.3098 147.727 52.3311 148.041C52.3456 148.358 52.2841 148.685 52.1469 149.02L50.8268 152.249L50.153 151.973L51.4821 148.722C51.6597 148.288 51.6548 147.891 51.4674 147.532C51.28 147.173 50.9888 146.913 50.5939 146.752C50.1989 146.59 49.8089 146.572 49.4236 146.697C49.0384 146.822 48.757 147.101 48.5794 147.536L47.2502 150.786Z" fill="white"/>
<path d="M41.0357 146.338C41.3573 146.912 41.812 147.351 42.3996 147.654C42.9872 147.958 43.5398 148.015 44.0575 147.826C44.5752 147.638 44.9809 147.259 45.2746 146.69C45.5683 146.121 45.6422 145.571 45.4965 145.04C45.3508 144.509 44.9841 144.091 44.3966 143.788C43.809 143.484 43.1879 143.367 42.5334 143.438L42.4979 143.419L42.8282 142.78C43.4991 142.736 44.1402 142.872 44.7515 143.188C45.4765 143.562 45.9549 144.1 46.1866 144.802C46.4112 145.506 46.3228 146.247 45.9214 147.024C45.5201 147.801 44.9685 148.3 44.2667 148.52C43.5577 148.742 42.8408 148.666 42.1157 148.291C41.5044 147.975 41.0224 147.531 40.6697 146.959L41.0001 146.319L41.0357 146.338Z" fill="white"/>
<path d="M35.8254 143.593L38.4873 145.266L39.4281 143.769L37.01 142.25L37.3718 141.674L39.7899 143.194L40.7349 141.69L38.073 140.017L38.4348 139.441L41.7132 141.502L38.7418 146.229L35.4635 144.169L35.8254 143.593Z" fill="white"/>
<path d="M32.9203 136.138L33.0358 135.985C33.1384 135.848 33.1953 135.698 33.2062 135.532L33.2255 135.507L33.8262 135.959C33.8121 136.102 33.7553 136.24 33.6558 136.372L33.5788 136.474C33.2836 136.866 33.122 137.165 33.0938 137.371C33.0744 137.476 33.0646 137.596 33.0643 137.729C33.0745 137.99 33.2414 138.243 33.5652 138.487L34.8881 139.483L36.1971 137.745L36.7786 138.183L33.4195 142.643L31.6429 141.305C31.0635 140.869 30.7188 140.422 30.6087 139.966C30.4987 139.509 30.5896 139.087 30.8816 138.699C31.0773 138.439 31.3241 138.258 31.6219 138.155C31.9165 138.056 32.2333 138.061 32.5723 138.17L32.5819 138.157C32.1786 137.646 32.2914 136.973 32.9203 136.138ZM33.3175 139.161C32.9511 138.885 32.6069 138.74 32.2848 138.724C31.9584 138.705 31.6974 138.826 31.5017 139.086C31.3059 139.346 31.2505 139.614 31.3353 139.892C31.4158 140.166 31.6797 140.472 32.1271 140.809L33.2518 141.656L34.4742 140.032L33.3175 139.161Z" fill="white"/>
<path d="M23.7377 134.157C23.4159 133.83 23.1848 133.478 23.0444 133.1C22.8964 132.721 22.8408 132.357 22.8775 132.006C22.9471 131.294 23.2365 130.687 23.7457 130.186C24.1524 129.786 24.6277 129.527 25.1716 129.411C25.7685 129.279 26.3393 129.35 26.8841 129.622C27.1809 129.771 27.4584 129.977 27.7165 130.239L29.0973 131.642L25.1185 135.559L23.7377 134.157ZM27.2938 130.779C26.8298 130.308 26.3187 130.066 25.7606 130.054C25.2026 130.043 24.6993 130.257 24.2509 130.699C23.8025 131.141 23.5799 131.64 23.5831 132.199C23.5863 132.757 23.8199 133.271 24.284 133.743L25.0922 134.564L28.102 131.6L27.2938 130.779Z" fill="white"/>
<path d="M18.3952 126.955L20.3943 129.381L21.7589 128.257L19.9429 126.053L20.4678 125.621L22.2837 127.825L23.6545 126.696L21.6554 124.269L22.1803 123.837L24.6422 126.825L20.3323 130.376L17.8704 127.387L18.3952 126.955Z" fill="white"/>
<path d="M17.417 124.104C17.5925 123.982 17.6903 123.814 17.7104 123.599C17.7274 123.38 17.6888 123.151 17.5946 122.911C17.4959 122.675 17.3983 122.411 17.3018 122.122C17.1978 121.83 17.114 121.554 17.0505 121.294C16.987 121.033 17.0003 120.771 17.0906 120.507C17.1735 120.243 17.3509 120.016 17.623 119.828C18.0003 119.568 18.4173 119.51 18.8739 119.654C19.323 119.798 19.7386 120.146 20.1207 120.699C20.5027 121.252 20.7481 121.86 20.8568 122.524L20.2711 122.929L20.2484 122.896C20.1875 122.264 19.9554 121.656 19.5522 121.072C19.0216 120.304 18.5018 120.096 17.9928 120.448C17.7427 120.621 17.6873 120.935 17.8266 121.389C17.8861 121.588 17.96 121.803 18.0481 122.034C18.1363 122.265 18.2172 122.504 18.2909 122.751C18.3615 122.994 18.4106 123.229 18.4381 123.456C18.4581 123.682 18.4255 123.903 18.3404 124.117C18.2478 124.33 18.0918 124.512 17.8724 124.664C17.4907 124.928 17.0673 125 16.6022 124.881C16.1341 124.757 15.7242 124.44 15.3725 123.931C15.0178 123.418 14.7769 122.901 14.6498 122.379L15.2092 121.992L15.241 122.038C15.3593 122.566 15.5504 123.021 15.8142 123.403C16.0749 123.78 16.3491 124.031 16.6367 124.157C16.92 124.285 17.1801 124.267 17.417 124.104Z" fill="white"/>
<path d="M12.5745 119.288L17.384 116.451L17.7539 117.078L12.9444 119.915L12.5745 119.288Z" fill="white"/>
<path d="M11.9214 112.596L10.9929 110.708L13.2614 109.592C13.9335 110.029 14.432 110.577 14.7568 111.237C15.1263 111.989 15.1859 112.714 14.9356 113.414C14.6853 114.113 14.1797 114.65 13.4187 115.025C12.6578 115.399 11.9203 115.464 11.2064 115.221C10.4924 114.978 9.97068 114.521 9.64118 113.851C9.30932 113.176 9.17937 112.447 9.25134 111.663L9.92615 111.331L9.94027 111.359C9.83253 112.143 9.91988 112.823 10.2023 113.397C10.4824 113.966 10.883 114.346 11.4041 114.535C11.9252 114.725 12.4825 114.674 13.0759 114.382C13.6646 114.092 14.0573 113.682 14.254 113.152C14.4459 112.624 14.3936 112.058 14.097 111.455C13.8758 111.005 13.5646 110.638 13.1633 110.354L11.864 110.993L12.51 112.307L11.9214 112.596Z" fill="white"/>
<path d="M6.37593 105.651L6.11659 104.971L11.3343 102.982L11.6534 103.819L8.50657 108.477L8.51227 108.492L12.8105 106.854L13.0698 107.534L7.85216 109.523L7.53297 108.686L10.6752 104.038L10.6667 104.015L6.37593 105.651Z" fill="white"/>
<path d="M5.15357 98.9431L6.00925 101.968L7.71051 101.487L6.93321 98.7391L7.58754 98.554L8.36484 101.302L10.0738 100.819L9.21812 97.7935L9.87245 97.6084L10.9263 101.334L5.55305 102.854L4.49924 99.1282L5.15357 98.9431Z" fill="white"/>
<path d="M7.98877 91.4608L8.17727 91.4243C8.34483 91.3919 8.48805 91.318 8.60696 91.2026L8.63837 91.1965L8.78133 91.9348C8.67509 92.0314 8.54082 92.0955 8.3785 92.1269L8.25283 92.1512C7.77111 92.2445 7.45087 92.3581 7.29211 92.4921C7.20698 92.5574 7.11966 92.6395 7.03015 92.7384C6.86261 92.9392 6.81737 93.2386 6.89442 93.6365L7.20923 95.2623L9.34555 94.8487L9.48394 95.5634L4.00177 96.6249L3.57898 94.4415C3.4411 93.7294 3.48429 93.1669 3.70857 92.7541C3.93285 92.3413 4.28323 92.0887 4.75971 91.9964C5.07911 91.9346 5.38382 91.9652 5.67385 92.0883C5.95864 92.2125 6.19057 92.4283 6.36963 92.7359L6.38534 92.7328C6.42802 92.0836 6.9625 91.6596 7.98877 91.4608ZM6.25851 93.9715C6.17132 93.5212 6.01336 93.1824 5.78464 92.9551C5.5549 92.7225 5.28034 92.6372 4.96094 92.699C4.64153 92.7609 4.42036 92.9232 4.29742 93.186C4.17346 93.4436 4.16471 93.8473 4.27117 94.3971L4.53883 95.7794L6.53377 95.3931L6.25851 93.9715Z" fill="white"/>
<path d="M6.14668 83.7245L6.26365 85.8012L5.61668 85.8377L5.49971 83.7609L6.14668 83.7245Z" fill="white"/>
<rect x="36.5625" y="38.3474" width="83.9911" height="83.9911" rx="41.9955" fill="#5550F4"/>
</svg>
