<svg width="32" height="32" viewBox="0 0 32 32" fill="none" xmlns="http://www.w3.org/2000/svg">
<circle cx="16" cy="16" r="16" fill="white"/>
<path d="M21.6249 12.625L20.5074 13.7425L18.2574 11.4925L19.3749 10.375C19.6899 10.06 20.0949 9.91 20.4999 9.91C20.9049 9.91 21.3099 10.06 21.6249 10.375C22.2474 10.9975 22.2474 12.0025 21.6249 12.625Z" fill="#191919"/>
<path opacity="0.4" d="M20.5075 13.7425L11.875 22.375C11.2525 22.9975 10.2475 22.9975 9.62496 22.375C9.00246 21.7525 9.00246 20.7475 9.62496 20.125L18.2575 11.4925L20.5075 13.7425Z" fill="#191919"/>
<path d="M14.4625 9.625L14.77 8.5825C14.8 8.485 14.77 8.38 14.7025 8.305C14.635 8.23 14.515 8.2 14.4175 8.23L13.375 8.5375L12.3325 8.23C12.235 8.2 12.13 8.23 12.055 8.2975C11.98 8.3725 11.9575 8.4775 11.9875 8.575L12.2875 9.625L11.98 10.6675C11.95 10.765 11.98 10.87 12.0475 10.945C12.1225 11.02 12.2275 11.0425 12.325 11.0125L13.375 10.7125L14.4175 11.02C14.4475 11.0275 14.47 11.035 14.5 11.035C14.575 11.035 14.6425 11.005 14.7025 10.9525C14.7775 10.8775 14.8 10.7725 14.77 10.675L14.4625 9.625Z" fill="#191919"/>
<path d="M11.4625 14.125L11.77 13.0825C11.8 12.985 11.77 12.88 11.7025 12.805C11.6275 12.73 11.5225 12.7075 11.425 12.7375L10.375 13.0375L9.33251 12.73C9.23501 12.7 9.13001 12.73 9.05501 12.7975C8.98001 12.8725 8.95751 12.9775 8.98751 13.075L9.28751 14.125L8.98001 15.1675C8.95001 15.265 8.98001 15.37 9.04751 15.445C9.12251 15.52 9.22751 15.5425 9.32501 15.5125L10.3675 15.205L11.41 15.5125C11.4325 15.52 11.4625 15.52 11.4925 15.52C11.5675 15.52 11.635 15.49 11.695 15.4375C11.77 15.3625 11.7925 15.2575 11.7625 15.16L11.4625 14.125Z" fill="#191919"/>
<path d="M22.7125 17.875L23.02 16.8325C23.05 16.735 23.02 16.63 22.9525 16.555C22.8775 16.48 22.7725 16.4575 22.675 16.4875L21.6325 16.795L20.59 16.4875C20.4925 16.4575 20.3875 16.4875 20.3125 16.555C20.2375 16.63 20.215 16.735 20.245 16.8325L20.5525 17.875L20.245 18.9175C20.215 19.015 20.245 19.12 20.3125 19.195C20.3875 19.27 20.4925 19.2925 20.59 19.2625L21.6325 18.955L22.675 19.2625C22.6975 19.27 22.7275 19.27 22.7575 19.27C22.8325 19.27 22.9 19.24 22.96 19.1875C23.035 19.1125 23.0575 19.0075 23.0275 18.91L22.7125 17.875Z" fill="#191919"/>
</svg>
