<svg width="169" height="170" viewBox="0 0 169 170" fill="none" xmlns="http://www.w3.org/2000/svg">
<path d="M6.32162 68.3203L6.47406 66.8079L17.2199 71.5576L17.0739 73.0062L8.17281 74.8428L8.16479 74.9224L16.5203 78.4984L16.3743 79.9471L4.89672 82.4566L5.04916 80.9443L14.5011 79.0668L14.5059 79.019L5.622 75.2611L5.74877 74.0035L15.2039 72.0941L15.2087 72.0463L6.32162 68.3203Z" fill="white"/>
<path d="M9.70803 57.4087L10.126 56.0139L20.824 59.2196L20.4061 60.6143L15.7161 59.209L13.9755 65.0178L18.6655 66.4231L18.2475 67.8179L7.54949 64.6122L7.96742 63.2175L12.6727 64.6274L14.4133 58.8186L9.70803 57.4087Z" fill="white"/>
<path d="M25.5165 49.741L22.4168 49.556L20.0264 54.4248L22.0684 56.7642L21.3703 58.1861L13.4326 49.013L14.1024 47.6485L26.2146 48.3191L25.5165 49.741ZM19.0163 53.2873L19.0881 53.3225L20.9709 49.4878L20.899 49.4525L15.3867 49.099L15.3726 49.1277L19.0163 53.2873Z" fill="white"/>
<path d="M22.6578 34.2949L23.7733 35.0728L21.5677 38.2357L29.6128 43.8458L28.78 45.0401L20.7349 39.43L18.5293 42.593L17.4137 41.815L22.6578 34.2949Z" fill="white"/>
<path d="M30.7206 25.9981L38.4021 34.1048L37.3452 35.1063L29.6637 26.9996L30.7206 25.9981Z" fill="white"/>
<path d="M44.2277 15.9874C45.0134 15.5139 45.8068 15.2288 46.6078 15.1322C47.4125 15.0208 48.1471 15.0825 48.8116 15.3172C50.1644 15.7847 51.2097 16.6305 51.9475 17.8547C52.5366 18.8323 52.8176 19.8772 52.7905 20.9895C52.7673 22.2115 52.3642 23.2888 51.5812 24.2215C51.1523 24.729 50.6227 25.1728 49.9923 25.5527L46.6212 27.5843L40.8566 18.0191L44.2277 15.9874ZM49.1396 24.4787C50.2724 23.796 50.9805 22.9147 51.2637 21.8348C51.547 20.755 51.3638 19.676 50.7141 18.598C50.0644 17.52 49.196 16.854 48.1089 16.6C47.0218 16.346 45.9118 16.5604 44.779 17.2431L42.8056 18.4324L47.1662 25.668L49.1396 24.4787Z" fill="white"/>
<path d="M54.0573 12.6055C54.6182 11.2453 55.6847 10.2616 57.2568 9.65424C58.8289 9.04693 60.2798 9.0582 61.6094 9.68805C62.939 10.3179 63.9244 11.4181 64.5654 12.9886C65.1467 14.5822 65.1569 16.0591 64.596 17.4192C64.0351 18.7794 62.9686 19.7631 61.3965 20.3704C59.8244 20.9778 58.3735 20.9665 57.0439 20.3366C55.7143 19.7068 54.729 18.6066 54.088 17.0361C53.5067 15.4425 53.4964 13.9656 54.0573 12.6055ZM55.4461 16.5114C55.9036 17.6955 56.6254 18.5429 57.6118 19.0538C58.6043 19.5509 59.6975 19.5688 60.8915 19.1076C62.0955 18.6425 62.8977 17.8923 63.2983 16.8571C63.6949 15.8119 63.6646 14.6973 63.2072 13.5133C62.7498 12.3292 62.0248 11.4887 61.0324 10.9916C60.0361 10.4845 58.9359 10.4635 57.732 10.9286C56.538 11.3899 55.7426 12.1431 55.3459 13.1883C54.9553 14.2196 54.9887 15.3273 55.4461 16.5114Z" fill="white"/>
<path d="M77.2926 12.6505L73.1732 13.2303L72.9925 11.9469L77.1119 11.3671L77.2926 12.6505Z" fill="white"/>
<path d="M101.043 6.32749L102.554 6.4882L97.7458 17.2079L96.298 17.0539L94.5102 8.14295L94.4306 8.13449L90.8089 16.4703L89.3611 16.3163L86.9144 4.82521L88.4259 4.98593L90.2516 14.448L90.2994 14.4531L94.1059 5.58988L95.3628 5.72353L97.2204 15.189L97.2681 15.1941L101.043 6.32749Z" fill="white"/>
<path d="M111.936 9.77354L113.328 10.1991L110.064 20.8794L108.671 20.4539L110.102 15.7717L104.303 13.9993L102.872 18.6815L101.48 18.2559L104.744 7.5756L106.136 8.00116L104.701 12.6987L110.5 14.471L111.936 9.77354Z" fill="white"/>
<path d="M119.517 25.6239L119.719 22.5252L114.863 20.1082L112.512 22.1373L111.094 21.4315L120.311 13.5441L121.671 14.2214L120.935 26.3297L119.517 25.6239ZM116.006 19.1044L115.97 19.176L119.795 21.0797L119.83 21.008L120.214 15.4977L120.185 15.4834L116.006 19.1044Z" fill="white"/>
<path d="M134.978 22.8498L134.194 23.9611L131.043 21.7382L125.389 29.7525L124.2 28.9131L129.854 20.8989L126.703 18.676L127.487 17.5647L134.978 22.8498Z" fill="white"/>
<path d="M143.231 30.9578L135.082 38.5948L134.087 37.5324L142.235 29.8954L143.231 30.9578Z" fill="white"/>
<path d="M153.167 44.5195C153.636 45.3078 153.917 46.1027 154.01 46.9043C154.116 47.7096 154.051 48.4438 153.812 49.107C153.338 50.4572 152.486 51.4979 151.258 52.2289C150.277 52.8127 149.231 53.088 148.118 53.0548C146.897 53.0249 145.821 52.6159 144.893 51.8279C144.388 51.3962 143.947 50.8641 143.571 50.2317L141.557 46.8495L151.154 41.1373L153.167 44.5195ZM144.649 49.3848C145.326 50.5214 146.203 51.2343 147.281 51.5234C148.36 51.8126 149.44 51.6353 150.521 50.9915C151.603 50.3478 152.274 49.483 152.533 48.3973C152.793 47.3116 152.585 46.2005 151.909 45.0639L150.73 43.0841L143.471 47.405L144.649 49.3848Z" fill="white"/>
<path d="M156.495 54.3675C157.853 54.9358 158.83 56.0076 159.429 57.5831C160.028 59.1585 160.009 60.6092 159.371 61.9354C158.734 63.2616 157.629 64.2408 156.055 64.8732C154.458 65.4458 152.981 65.4479 151.624 64.8796C150.267 64.3113 149.289 63.2394 148.69 61.664C148.092 60.0886 148.111 58.6378 148.748 57.3117C149.385 55.9855 150.491 55.0062 152.065 54.3738C153.662 53.8013 155.138 53.7991 156.495 54.3675ZM152.582 55.7349C151.395 56.1858 150.544 56.903 150.028 57.8866C149.525 58.8763 149.501 59.9694 149.956 61.166C150.415 62.3724 151.16 63.1788 152.193 63.585C153.236 63.9874 154.351 63.9631 155.538 63.5122C156.724 63.0613 157.569 62.341 158.071 61.3512C158.584 60.3577 158.611 59.2577 158.152 58.0512C157.697 56.8547 156.949 56.0552 155.906 55.6528C154.876 55.2566 153.769 55.284 152.582 55.7349Z" fill="white"/>
<path d="M156.323 77.6019L155.766 73.4794L157.05 73.3058L157.607 77.4283L156.323 77.6019Z" fill="white"/>
<path d="M162.498 101.61L162.346 103.123L151.6 98.3731L151.746 96.9244L160.647 95.0878L160.655 95.0083L152.3 91.4323L152.446 89.9836L163.923 87.474L163.771 88.9864L154.319 90.8639L154.314 90.9117L163.198 94.6696L163.071 95.9272L153.616 97.8366L153.611 97.8843L162.498 101.61Z" fill="white"/>
<path d="M159.112 112.522L158.694 113.917L147.996 110.711L148.414 109.316L153.104 110.722L154.844 104.913L150.154 103.508L150.572 102.113L161.27 105.318L160.852 106.713L156.147 105.303L154.406 111.112L159.112 112.522Z" fill="white"/>
<path d="M143.303 120.19L146.403 120.375L148.793 115.506L146.751 113.166L147.45 111.745L155.387 120.918L154.717 122.282L142.605 121.612L143.303 120.19ZM149.803 116.643L149.732 116.608L147.849 120.443L147.921 120.478L153.433 120.832L153.447 120.803L149.803 116.643Z" fill="white"/>
<path d="M146.162 135.636L145.047 134.858L147.252 131.695L139.207 126.085L140.04 124.891L148.085 130.501L150.291 127.338L151.406 128.116L146.162 135.636Z" fill="white"/>
<path d="M138.099 143.933L130.418 135.826L131.475 134.824L139.156 142.931L138.099 143.933Z" fill="white"/>
<path d="M124.592 153.943C123.806 154.417 123.013 154.702 122.212 154.799C121.407 154.91 120.673 154.848 120.008 154.613C118.655 154.146 117.61 153.3 116.872 152.076C116.283 151.098 116.002 150.053 116.029 148.941C116.053 147.719 116.456 146.642 117.239 145.709C117.667 145.202 118.197 144.758 118.828 144.378L122.199 142.346L127.963 151.912L124.592 153.943ZM119.68 145.452C118.547 146.135 117.839 147.016 117.556 148.096C117.273 149.176 117.456 150.255 118.106 151.333C118.755 152.411 119.624 153.077 120.711 153.331C121.798 153.585 122.908 153.37 124.041 152.688L126.014 151.498L121.654 144.263L119.68 145.452Z" fill="white"/>
<path d="M114.762 157.325C114.202 158.685 113.135 159.669 111.563 160.276C109.991 160.884 108.54 160.872 107.21 160.243C105.881 159.613 104.895 158.513 104.254 156.942C103.673 155.348 103.663 153.872 104.224 152.511C104.785 151.151 105.851 150.168 107.423 149.56C108.995 148.953 110.446 148.964 111.776 149.594C113.106 150.224 114.091 151.324 114.732 152.895C115.313 154.488 115.323 155.965 114.762 157.325ZM113.374 153.419C112.916 152.235 112.194 151.388 111.208 150.877C110.216 150.38 109.122 150.362 107.928 150.823C106.724 151.288 105.922 152.038 105.522 153.074C105.125 154.119 105.155 155.233 105.613 156.417C106.07 157.601 106.795 158.442 107.787 158.939C108.784 159.446 109.884 159.467 111.088 159.002C112.282 158.541 113.077 157.788 113.474 156.742C113.864 155.711 113.831 154.603 113.374 153.419Z" fill="white"/>
<path d="M91.5273 157.28L95.6467 156.7L95.8273 157.984L91.7079 158.564L91.5273 157.28Z" fill="white"/>
<path d="M67.7771 163.603L66.2656 163.442L71.074 152.723L72.5218 152.877L74.3097 161.788L74.3892 161.796L78.0109 153.46L79.4587 153.614L81.9054 165.105L80.394 164.945L78.5682 155.483L78.5205 155.478L74.714 164.341L73.4571 164.207L71.5995 154.742L71.5517 154.737L67.7771 163.603Z" fill="white"/>
<path d="M56.8842 160.157L55.4917 159.732L58.7559 149.051L60.1483 149.477L58.7173 154.159L64.5165 155.931L65.9475 151.249L67.34 151.675L64.0758 162.355L62.6834 161.93L64.119 157.232L58.3198 155.46L56.8842 160.157Z" fill="white"/>
<path d="M49.3032 144.307L49.1013 147.405L53.957 149.822L56.3075 147.793L57.7255 148.499L48.5091 156.387L47.1483 155.709L47.8852 143.601L49.3032 144.307ZM52.8139 150.826L52.8495 150.755L49.0251 148.851L48.9895 148.923L48.6058 154.433L48.6344 154.447L52.8139 150.826Z" fill="white"/>
<path d="M33.8417 147.081L34.6257 145.97L37.7765 148.192L43.4306 140.178L44.6203 141.018L38.9662 149.032L42.117 151.255L41.333 152.366L33.8417 147.081Z" fill="white"/>
<path d="M25.589 138.973L33.7377 131.336L34.7333 132.398L26.5847 140.035L25.589 138.973Z" fill="white"/>
<path d="M15.6525 125.411C15.1834 124.623 14.9026 123.828 14.8103 123.026C14.7034 122.221 14.7691 121.487 15.0074 120.824C15.4823 119.473 16.3338 118.433 17.5621 117.702C18.5428 117.118 19.5893 116.843 20.7014 116.876C21.9233 116.906 22.9984 117.315 23.9267 118.103C24.4319 118.534 24.8728 119.067 25.2492 119.699L27.2624 123.081L17.6657 128.793L15.6525 125.411ZM24.1706 120.546C23.4941 119.409 22.6167 118.696 21.5384 118.407C20.4601 118.118 19.3802 118.295 18.2986 118.939C17.217 119.583 16.5463 120.448 16.2863 121.533C16.0264 122.619 16.2347 123.73 16.9112 124.867L18.0896 126.847L25.349 122.526L24.1706 120.546Z" fill="white"/>
<path d="M12.3243 115.563C10.9673 114.995 9.98939 113.923 9.3907 112.348C8.792 110.772 8.81121 109.321 9.44833 107.995C10.0855 106.669 11.191 105.69 12.765 105.057C14.3618 104.485 15.8387 104.483 17.1958 105.051C18.5528 105.619 19.5307 106.691 20.1294 108.267C20.7281 109.842 20.7089 111.293 20.0718 112.619C19.4346 113.945 18.3291 114.924 16.7551 115.557C15.1583 116.129 13.6814 116.132 12.3243 115.563ZM16.2378 114.196C17.4244 113.745 18.2758 113.028 18.7921 112.044C19.2946 111.054 19.3185 109.961 18.8638 108.765C18.4053 107.558 17.6595 106.752 16.6265 106.346C15.5836 105.943 14.4688 105.968 13.2823 106.418C12.0957 106.869 11.2512 107.59 10.7487 108.579C10.2362 109.573 10.2092 110.673 10.6677 111.879C11.1224 113.076 11.8712 113.875 12.9142 114.278C13.9434 114.674 15.0513 114.647 16.2378 114.196Z" fill="white"/>
<path d="M12.4967 92.3287L13.0539 96.4512L11.7696 96.6248L11.2124 92.5023L12.4967 92.3287Z" fill="white"/>
<path d="M63.6174 64.0694L104.204 104.656M104.204 104.656C99.6943 100.146 87.834 93.9681 76.4698 105.332M104.204 104.656C99.6943 100.146 93.5161 88.286 104.88 76.9218" stroke="white" stroke-width="5.7398"/>
</svg>
