<svg width="72" height="72" viewBox="0 0 72 72" fill="none" xmlns="http://www.w3.org/2000/svg">
<path d="M4.05228 31.1237C4.26326 31.1553 4.44957 31.0997 4.61124 30.9568C4.77369 30.8086 4.90252 30.6149 4.99773 30.3757C5.08767 30.1357 5.19659 29.877 5.3245 29.5996C5.44793 29.3161 5.57571 29.0575 5.70784 28.8239C5.83996 28.5902 6.02906 28.4082 6.27511 28.278C6.51668 28.1416 6.80096 28.098 7.12797 28.1471C7.58156 28.2151 7.92531 28.4581 8.15921 28.8761C8.38863 29.2881 8.45349 29.8263 8.35378 30.4909C8.25408 31.1555 8.01671 31.767 7.64169 32.3255L6.93757 32.2199L6.94351 32.1803C7.33171 31.6777 7.57844 31.0757 7.68368 30.3742C7.82216 29.4512 7.58549 28.9438 6.97367 28.852C6.67304 28.8069 6.41789 28.9978 6.20822 29.4247C6.11565 29.6104 6.02255 29.8175 5.92892 30.0462C5.8353 30.2748 5.73073 30.5045 5.61521 30.7353C5.50049 30.9607 5.37535 31.1658 5.23979 31.3504C5.09975 31.5289 4.9253 31.6672 4.71643 31.7653C4.50308 31.8573 4.26455 31.8836 4.00084 31.844C3.54197 31.7752 3.18385 31.5381 2.92648 31.1327C2.6699 30.7221 2.5875 30.2109 2.67929 29.5991C2.77188 28.982 2.9503 28.4398 3.21456 27.9725L3.88703 28.0734L3.87872 28.1288C3.60391 28.5945 3.43209 29.0568 3.36324 29.5156C3.29519 29.9692 3.32313 30.3401 3.44707 30.6284C3.56573 30.9158 3.76747 31.0809 4.05228 31.1237Z" fill="white"/>
<path d="M6.23432 21.8752C5.71181 22.2755 5.34231 22.7881 5.12583 23.413C4.90935 24.0379 4.9315 24.5931 5.19229 25.0786C5.45309 25.564 5.88585 25.9115 6.49059 26.121C7.09533 26.3305 7.65031 26.3252 8.15552 26.1051C8.66073 25.885 9.02157 25.4625 9.23806 24.8376C9.45454 24.2127 9.48135 23.5814 9.31849 22.9436L9.33158 22.9058L10.0119 23.1415C10.1509 23.7992 10.1078 24.4532 9.88262 25.1033C9.61551 25.8743 9.15111 26.4246 8.48945 26.7542C7.82448 27.077 7.07876 27.0952 6.25229 26.8089C5.42581 26.5225 4.8537 26.0478 4.53596 25.3846C4.21493 24.7146 4.18797 23.994 4.45508 23.223C4.6803 22.5729 5.05096 22.0325 5.56708 21.6017L6.24741 21.8374L6.23432 21.8752Z" fill="white"/>
<path d="M12.5387 18.5126L12.7049 18.6088C12.8526 18.6943 13.0091 18.7326 13.1746 18.7236L13.2023 18.7397L12.8254 19.3904C12.6818 19.3936 12.5385 19.3537 12.3954 19.2709L12.2847 19.2067C11.8601 18.9608 11.5439 18.8363 11.3362 18.8331C11.2291 18.8266 11.1093 18.8312 10.9769 18.8469C10.7187 18.8884 10.488 19.0846 10.2849 19.4354L9.45501 20.8684L11.3381 21.9589L10.9733 22.5889L6.141 19.7906L7.2555 17.866C7.61898 17.2383 8.02082 16.8424 8.46102 16.6782C8.90122 16.514 9.33132 16.5535 9.75131 16.7968C10.0328 16.9598 10.2426 17.1829 10.3805 17.4662C10.5139 17.7468 10.5471 18.0619 10.4803 18.4114L10.4941 18.4195C10.9526 17.9577 11.6341 17.9887 12.5387 18.5126ZM9.58526 19.2706C9.81511 18.8737 9.91839 18.5144 9.89511 18.1927C9.87449 17.8665 9.72341 17.6218 9.44188 17.4588C9.16034 17.2958 8.88693 17.273 8.62164 17.3906C8.35903 17.5035 8.08741 17.8023 7.80678 18.2869L7.10119 19.5054L8.85964 20.5236L9.58526 19.2706Z" fill="white"/>
<path d="M10.459 14.6857C10.3944 13.9529 10.6409 13.2707 11.1986 12.6389C11.7562 12.0071 12.4026 11.6778 13.1377 11.6508C13.8729 11.6239 14.5636 11.885 15.21 12.4342C15.8351 13.0073 16.18 13.6603 16.2446 14.3931C16.3092 15.1259 16.0626 15.8082 15.505 16.4399C14.9474 17.0717 14.301 17.4011 13.5659 17.428C12.8307 17.4549 12.14 17.1938 11.4936 16.6447C10.8684 16.0715 10.5236 15.4185 10.459 14.6857ZM11.9754 16.0988C12.4512 16.5188 12.9668 16.7285 13.5222 16.7279C14.0772 16.7198 14.5664 16.4758 14.9899 15.9959C15.417 15.5121 15.6001 14.9944 15.5392 14.4427C15.4744 13.8875 15.204 13.4 14.7282 12.98C14.2524 12.56 13.737 12.3541 13.1821 12.3622C12.6231 12.3668 12.1301 12.611 11.7031 13.0949C11.2796 13.5747 11.1002 14.0922 11.1651 14.6474C11.2294 15.195 11.4995 15.6789 11.9754 16.0988Z" fill="white"/>
<path d="M20.24 11.4004L20.6882 11.9742L17.7943 14.2345L14.357 9.83375L14.9308 9.38563L17.9199 13.2126L20.24 11.4004Z" fill="white"/>
<path d="M24.3415 9.29229L24.6899 9.93151L21.4657 11.6888L18.7934 6.78578L19.4326 6.43738L21.7565 10.7012L24.3415 9.29229Z" fill="white"/>
<path d="M31.4244 2.51662L31.5629 3.18237L29.6753 3.575L30.674 8.37624L29.9612 8.52449L28.9625 3.72325L27.0749 4.11588L26.9365 3.45013L31.4244 2.51662Z" fill="white"/>
<path d="M33.8068 3.18733C34.3061 2.64712 34.9771 2.37126 35.8197 2.35974C36.6623 2.34822 37.3405 2.60563 37.8544 3.13199C38.3683 3.65835 38.6391 4.34538 38.6667 5.19308C38.6623 6.04122 38.4104 6.73539 37.9111 7.2756C37.4117 7.81581 36.7408 8.09168 35.8982 8.1032C35.0556 8.11472 34.3774 7.8573 33.8635 7.33095C33.3495 6.80459 33.0788 6.11756 33.0512 5.26986C33.0556 4.42172 33.3075 3.72754 33.8068 3.18733ZM33.7791 5.2599C33.7878 5.89451 33.979 6.41728 34.3526 6.82821C34.7315 7.23373 35.241 7.43212 35.8809 7.42337C36.5262 7.41455 37.0327 7.20227 37.4003 6.78654C37.768 6.36547 37.9474 5.83764 37.9387 5.20303C37.9301 4.56842 37.7363 4.04836 37.3574 3.64283C36.9784 3.23198 36.4662 3.03096 35.821 3.03978C35.181 3.04853 34.6773 3.26344 34.3096 3.6845C33.9473 4.10016 33.7705 4.6253 33.7791 5.2599Z" fill="white"/>
<path d="M47.4813 5.4579L44.4785 4.52644L43.9547 6.21507L46.6824 7.0612L46.481 7.71067L43.7532 6.86454L43.227 8.5608L46.2299 9.49227L46.0284 10.1417L42.3303 8.99459L43.9846 3.66129L47.6828 4.80843L47.4813 5.4579Z" fill="white"/>
<path d="M50.1998 9.27048L50.804 12.7548L50.0044 12.3331L49.5705 9.57173L49.5352 9.55307L47.0325 10.7656L46.2683 10.3625L49.4672 8.89314L48.8733 5.42337L49.68 5.84883L50.0931 8.58108L50.1284 8.59974L52.6095 7.39395L53.3879 7.80448L50.1998 9.27048Z" fill="white"/>
<path d="M56.518 10.3655C56.8173 10.606 57.0459 10.858 57.2036 11.1215C57.3647 11.3808 57.4504 11.6276 57.4607 11.8616C57.4752 12.0991 57.4481 12.3201 57.3794 12.5249C57.3141 12.7255 57.2112 12.9131 57.0709 13.0878C56.9307 13.2624 56.768 13.4053 56.5828 13.5166C56.401 13.6236 56.1926 13.6957 55.9577 13.7327C55.7269 13.773 55.4658 13.7446 55.1745 13.6474C54.8865 13.546 54.5928 13.3751 54.2935 13.1346L53.1583 12.2228L51.8858 13.8069L51.3182 13.351L54.8153 8.9977L56.518 10.3655ZM54.6682 12.5532C55.0923 12.8939 55.4547 13.0516 55.7555 13.0264C56.0604 13.0045 56.3097 12.873 56.5034 12.6318C56.6971 12.3907 56.7718 12.1189 56.7274 11.8164C56.6872 11.5173 56.4551 11.1974 56.031 10.8567L54.952 9.98999L53.5892 11.6864L54.6682 12.5532Z" fill="white"/>
<path d="M58.1765 19.1688L57.6274 19.6468L55.2163 16.8773L59.428 13.2108L59.906 13.7599L56.2434 16.9483L58.1765 19.1688Z" fill="white"/>
<path d="M62.3558 18.2593C63.0724 18.4256 63.6443 18.8719 64.0716 19.5982C64.4989 20.3245 64.6111 21.0412 64.4083 21.7483C64.2055 22.4555 63.7427 23.0309 63.0199 23.4747C62.2808 23.8908 61.553 24.0158 60.8364 23.8495C60.1199 23.6832 59.5479 23.2369 59.1207 22.5105C58.6934 21.7842 58.5812 21.0675 58.784 20.3604C58.9868 19.6533 59.4496 19.0778 60.1724 18.6341C60.9114 18.2179 61.6392 18.093 62.3558 18.2593ZM60.5415 19.2616C59.9945 19.5833 59.635 20.0083 59.463 20.5364C59.2983 21.0664 59.3782 21.6072 59.7027 22.1589C60.0299 22.7151 60.4652 23.05 61.0084 23.1636C61.5563 23.2744 62.1037 23.169 62.6508 22.8472C63.1978 22.5254 63.5536 22.0995 63.7183 21.5695C63.8876 21.0368 63.8086 20.4923 63.4814 19.9361C63.1569 19.3844 62.7208 19.0532 62.1729 18.9423C61.6323 18.8333 61.0886 18.9398 60.5415 19.2616Z" fill="white"/>
<path d="M62.5638 29.174L62.3823 29.2369C62.2211 29.2927 62.0898 29.3862 61.9884 29.5173L61.9582 29.5277L61.712 28.8172C61.8035 28.7065 61.9273 28.6241 62.0836 28.5699L62.2045 28.528C62.6681 28.3674 62.969 28.2095 63.1072 28.0544C63.1822 27.9777 63.257 27.884 63.3316 27.7735C63.469 27.5509 63.4713 27.2482 63.3387 26.8652L62.7966 25.3004L60.7405 26.0127L60.5022 25.3248L65.7785 23.4969L66.5065 25.5984C66.7439 26.2838 66.7809 26.8467 66.6174 27.2871C66.4539 27.7276 66.1429 28.0272 65.6843 28.1861C65.3769 28.2926 65.0709 28.3055 64.7664 28.2247C64.4668 28.1422 64.2067 27.9614 63.9858 27.6823L63.9707 27.6876C64.0205 28.3364 63.5515 28.8318 62.5638 29.174ZM63.9207 26.4434C64.0708 26.8768 64.2752 27.1898 64.5338 27.3824C64.7942 27.5801 65.0781 27.6257 65.3855 27.5192C65.6929 27.4127 65.8888 27.2206 65.9733 26.943C66.0595 26.6704 66.0109 26.2696 65.8276 25.7404L65.3667 24.41L63.4467 25.0752L63.9207 26.4434Z" fill="white"/>
<path d="M67.3549 33.462L66.8885 30.3528L65.14 30.6151L65.5638 33.4395L64.8913 33.5404L64.4676 30.716L62.7112 30.9795L63.1777 34.0887L62.5052 34.1896L61.9307 30.3605L67.4529 29.532L68.0274 33.3611L67.3549 33.462Z" fill="white"/>
<path d="M66.2683 40.6772C66.0573 40.6456 65.871 40.7012 65.7093 40.8441C65.5469 40.9923 65.418 41.186 65.3228 41.4252C65.2329 41.6652 65.124 41.9239 64.9961 42.2013C64.8726 42.4848 64.7449 42.7434 64.6127 42.977C64.4806 43.2107 64.2915 43.3926 64.0454 43.5229C63.8039 43.6592 63.5196 43.7029 63.1926 43.6538C62.739 43.5858 62.3953 43.3427 62.1613 42.9247C61.9319 42.5128 61.8671 41.9746 61.9668 41.31C62.0665 40.6454 62.3038 40.0339 62.6789 39.4753L63.383 39.581L63.3771 39.6205C62.9888 40.1232 62.7421 40.7252 62.6369 41.4267C62.4984 42.3497 62.7351 42.8571 63.3469 42.9489C63.6475 42.994 63.9027 42.8031 64.1123 42.3761C64.2049 42.1905 64.298 41.9833 64.3916 41.7547C64.4853 41.5261 64.5898 41.2964 64.7053 41.0656C64.8201 40.8401 64.9452 40.6351 65.0808 40.4505C65.2208 40.272 65.3953 40.1337 65.6041 40.0356C65.8175 39.9435 66.056 39.9173 66.3197 39.9569C66.7786 40.0257 67.1367 40.2628 67.3941 40.6682C67.6507 41.0788 67.7331 41.59 67.6413 42.2018C67.5487 42.8189 67.3703 43.3611 67.106 43.8284L66.4335 43.7275L66.4418 43.6721C66.7166 43.2064 66.8885 42.7441 66.9573 42.2852C67.0254 41.8317 66.9974 41.4607 66.8735 41.1725C66.7548 40.885 66.5531 40.7199 66.2683 40.6772Z" fill="white"/>
<path d="M64.0862 49.9257C64.6087 49.5254 64.9782 49.0128 65.1947 48.3879C65.4112 47.763 65.3891 47.2078 65.1283 46.7223C64.8675 46.2369 64.4347 45.8894 63.83 45.6799C63.2252 45.4704 62.6702 45.4757 62.165 45.6958C61.6598 45.9159 61.299 46.3384 61.0825 46.9633C60.866 47.5881 60.8392 48.2195 61.0021 48.8573L60.989 48.8951L60.3086 48.6594C60.1696 48.0016 60.2127 47.3477 60.4379 46.6976C60.7051 45.9266 61.1694 45.3763 61.8311 45.0467C62.4961 44.7239 63.2418 44.7057 64.0683 44.992C64.8947 45.2783 65.4669 45.7531 65.7846 46.4163C66.1056 47.0863 66.1326 47.8068 65.8655 48.5779C65.6403 49.228 65.2696 49.7684 64.7535 50.1992L64.0731 49.9635L64.0862 49.9257Z" fill="white"/>
<path d="M57.7818 53.2883L57.6157 53.1921C57.468 53.1066 57.3114 53.0683 57.146 53.0773L57.1183 53.0612L57.4951 52.4105C57.6387 52.4073 57.782 52.4472 57.9251 52.53L58.0359 52.5942C58.4605 52.8401 58.7767 52.9646 58.9844 52.9678C59.0915 52.9743 59.2112 52.9697 59.3436 52.954C59.6019 52.9124 59.8326 52.7163 60.0357 52.3655L60.8655 50.9325L58.9825 49.842L59.3473 49.212L64.1796 52.0103L63.0651 53.9349C62.7016 54.5626 62.2997 54.9585 61.8595 55.1227C61.4193 55.2869 60.9892 55.2474 60.5692 55.0041C60.2877 54.8411 60.078 54.618 59.94 54.3347C59.8067 54.0541 59.7734 53.739 59.8403 53.3895L59.8264 53.3814C59.368 53.8432 58.6864 53.8121 57.7818 53.2883ZM60.7353 52.5303C60.5054 52.9272 60.4022 53.2865 60.4255 53.6081C60.4461 53.9344 60.5971 54.179 60.8787 54.3421C61.1602 54.5051 61.4336 54.5278 61.6989 54.4103C61.9615 54.2974 62.2332 53.9986 62.5138 53.514L63.2194 52.2955L61.4609 51.2772L60.7353 52.5303Z" fill="white"/>
<path d="M59.8616 57.1152C59.9261 57.8479 59.6796 58.5302 59.122 59.162C58.5644 59.7938 57.918 60.1231 57.1828 60.1501C56.4477 60.177 55.757 59.9159 55.1106 59.3667C54.4854 58.7936 54.1405 58.1406 54.076 57.4078C54.0114 56.675 54.2579 55.9927 54.8155 55.361C55.3732 54.7292 56.0195 54.3998 56.7547 54.3729C57.4898 54.346 58.1806 54.6071 58.8269 55.1562C59.4521 55.7294 59.797 56.3824 59.8616 57.1152ZM58.3452 55.702C57.8694 55.2821 57.3537 55.0724 56.7983 55.073C56.2434 55.0811 55.7542 55.3251 55.3306 55.8049C54.9036 56.2888 54.7205 56.8065 54.7813 57.3582C54.8462 57.9134 55.1165 58.4009 55.5923 58.8209C56.0682 59.2409 56.5836 59.4468 57.1385 59.4387C57.6974 59.4341 58.1904 59.1898 58.6175 58.706C59.041 58.2262 59.2203 57.7087 59.1555 57.1535C59.0911 56.6058 58.821 56.122 58.3452 55.702Z" fill="white"/>
<path d="M50.0805 60.4004L49.6324 59.8267L52.5263 57.5664L55.9635 61.9671L55.3898 62.4153L52.4007 58.5883L50.0805 60.4004Z" fill="white"/>
<path d="M45.979 62.5086L45.6306 61.8694L48.8548 60.1121L51.5272 65.0151L50.8879 65.3635L48.564 61.0997L45.979 62.5086Z" fill="white"/>
<path d="M38.8961 69.2843L38.7577 68.6185L40.6453 68.2259L39.6466 63.4247L40.3593 63.2764L41.358 68.0776L43.2456 67.685L43.3841 68.3508L38.8961 69.2843Z" fill="white"/>
<path d="M36.5138 68.6136C36.0144 69.1538 35.3435 69.4296 34.5009 69.4412C33.6583 69.4527 32.98 69.1953 32.4661 68.6689C31.9522 68.1425 31.6815 67.4555 31.6539 66.6078C31.6583 65.7597 31.9102 65.0655 32.4095 64.5253C32.9088 63.9851 33.5798 63.7092 34.4224 63.6977C35.2649 63.6862 35.9432 63.9436 36.4571 64.4699C36.971 64.9963 37.2418 65.6833 37.2694 66.531C37.265 67.3792 37.0131 68.0733 36.5138 68.6136ZM36.5414 66.541C36.5327 65.9064 36.3416 65.3836 35.9679 64.9727C35.589 64.5672 35.0796 64.3688 34.4397 64.3775C33.7944 64.3863 33.2879 64.5986 32.9202 65.0143C32.5526 65.4354 32.3731 65.9632 32.3818 66.5979C32.3905 67.2325 32.5843 67.7525 32.9632 68.1581C33.3422 68.5689 33.8543 68.7699 34.4996 68.7611C35.1395 68.7524 35.6433 68.5374 36.0109 68.1164C36.3733 67.7007 36.5501 67.1756 36.5414 66.541Z" fill="white"/>
<path d="M22.8392 66.343L25.8421 67.2745L26.3659 65.5858L23.6381 64.7397L23.8396 64.0902L26.5674 64.9364L27.0935 63.2401L24.0907 62.3086L24.2921 61.6592L27.9903 62.8063L26.3359 68.1396L22.6378 66.9925L22.8392 66.343Z" fill="white"/>
<path d="M20.1208 62.5304L19.5165 59.0461L20.3161 59.4678L20.75 62.2292L20.7854 62.2478L23.2881 61.0353L24.0523 61.4384L20.8534 62.9077L21.4472 66.3775L20.6406 65.9521L20.2275 63.2198L20.1921 63.2011L17.7111 64.4069L16.9327 63.9964L20.1208 62.5304Z" fill="white"/>
<path d="M13.8026 61.4354C13.5032 61.1949 13.2747 60.9429 13.117 60.6794C12.9559 60.42 12.8702 60.1733 12.8598 59.9392C12.8453 59.7018 12.8724 59.4807 12.9411 59.276C13.0065 59.0754 13.1093 58.8878 13.2496 58.7131C13.3899 58.5385 13.5526 58.3956 13.7377 58.2843C13.9195 58.1772 14.1279 58.1052 14.3629 58.0682C14.5937 58.0278 14.8547 58.0563 15.1461 58.1535C15.4341 58.2548 15.7277 58.4258 16.0271 58.6662L17.1622 59.5781L18.4348 57.9939L19.0023 58.4499L15.5053 62.8032L13.8026 61.4354ZM15.6524 59.2477C15.2283 58.907 14.8658 58.7493 14.5651 58.7745C14.2602 58.7964 14.0109 58.9279 13.8172 59.169C13.6234 59.4102 13.5488 59.682 13.5931 59.9844C13.6333 60.2835 13.8655 60.6034 14.2896 60.9441L15.3686 61.8109L16.7313 60.1145L15.6524 59.2477Z" fill="white"/>
<path d="M12.1441 52.6321L12.6932 52.1541L15.1042 54.9236L10.8925 58.5901L10.4145 58.041L14.0771 54.8526L12.1441 52.6321Z" fill="white"/>
<path d="M7.96473 53.5416C7.24814 53.3753 6.67622 52.929 6.24896 52.2027C5.82171 51.4764 5.70948 50.7597 5.91228 50.0525C6.11508 49.3454 6.57788 48.77 7.30069 48.3262C8.03972 47.9101 8.76752 47.7851 9.48411 47.9514C10.2007 48.1177 10.7726 48.564 11.1999 49.2903C11.6271 50.0167 11.7394 50.7334 11.5366 51.4405C11.3338 52.1476 10.871 52.7231 10.1482 53.1668C9.40913 53.583 8.68132 53.7079 7.96473 53.5416ZM9.77904 52.5393C10.3261 52.2175 10.6856 51.7926 10.8576 51.2645C11.0222 50.7345 10.9423 50.1936 10.6178 49.642C10.2906 49.0858 9.8554 48.7509 9.31214 48.6373C8.76429 48.5265 8.21684 48.6319 7.6698 48.9537C7.12277 49.2755 6.76691 49.7014 6.60223 50.2314C6.43296 50.7641 6.51193 51.3086 6.83913 51.8648C7.16363 52.4165 7.5998 52.7477 8.14766 52.8586C8.68821 52.9675 9.232 52.8611 9.77904 52.5393Z" fill="white"/>
<path d="M7.7568 42.6269L7.93822 42.564C8.09949 42.5082 8.23079 42.4147 8.33214 42.2836L8.36238 42.2732L8.60854 42.9837C8.51707 43.0944 8.39323 43.1768 8.237 43.231L8.11606 43.2729C7.65242 43.4335 7.35152 43.5913 7.21335 43.7465C7.13835 43.8232 7.06355 43.9169 6.98895 44.0274C6.85157 44.25 6.84922 44.5527 6.9819 44.9357L7.52399 46.5005L9.5801 45.7882L9.81841 46.4761L4.54206 48.304L3.81404 46.2025C3.57661 45.5171 3.53964 44.9542 3.70313 44.5138C3.86663 44.0733 4.17767 43.7737 4.63627 43.6148C4.94368 43.5083 5.24965 43.4954 5.5542 43.5762C5.85371 43.6587 6.11389 43.8395 6.33475 44.1186L6.34987 44.1133C6.30008 43.4645 6.76906 42.9691 7.7568 42.6269ZM6.3999 45.3575C6.24975 44.9241 6.04537 44.6111 5.78673 44.4185C5.52635 44.2208 5.24246 44.1752 4.93505 44.2817C4.62764 44.3882 4.43171 44.5803 4.34726 44.8579C4.26107 45.1305 4.30963 45.5313 4.49294 46.0605L4.95384 47.3909L6.87389 46.7257L6.3999 45.3575Z" fill="white"/>
<path d="M2.96561 38.3389L3.43209 41.4481L5.18052 41.1857L4.75677 38.3614L5.42924 38.2605L5.85299 41.0849L7.60934 40.8213L7.14286 37.7121L7.81533 37.6112L8.38982 41.4404L2.86763 42.2689L2.29313 38.4398L2.96561 38.3389Z" fill="white"/>
</svg>
